<?xml version="1.0" standalone="no"?>
<!DOCTYPE svg PUBLIC "-//W3C//DTD SVG 20010904//EN"
 "http://www.w3.org/TR/2001/REC-SVG-20010904/DTD/svg10.dtd">
<svg version="1.0" xmlns="http://www.w3.org/2000/svg"
 width="512.000000pt" height="512.000000pt" viewBox="0 0 512.000000 512.000000"
 preserveAspectRatio="xMidYMid meet">

<g transform="translate(0.000000,512.000000) scale(0.100000,-0.100000)"
fill="#000000" stroke="none">
<path d="M1945 4935 c-23 -22 -25 -32 -25 -120 l0 -95 -55 0 c-46 0 -60 -4
-80 -25 -25 -24 -25 -26 -25 -215 0 -189 0 -191 25 -215 20 -21 34 -25 80 -25
l55 0 0 -39 0 -38 -82 -5 c-139 -8 -240 -71 -290 -182 -22 -48 -23 -65 -26
-293 -3 -207 -6 -243 -18 -243 -8 0 -26 -11 -39 -25 -24 -23 -25 -28 -25 -175
0 -147 1 -152 25 -175 20 -21 34 -25 82 -25 l58 0 1 -83 c0 -57 5 -92 17 -114
9 -18 17 -34 17 -38 0 -3 -135 -5 -300 -5 l-300 0 0 123 0 122 65 34 c72 37
102 68 143 145 l27 51 0 245 c0 241 0 246 -25 295 -91 184 -314 239 -483 119
l-47 -34 -48 34 c-168 120 -391 65 -482 -119 -25 -49 -25 -54 -25 -295 l0
-245 27 -51 c41 -77 71 -108 143 -145 l65 -34 0 -122 0 -123 -80 0 -80 0 0
-80 0 -79 121 -3 120 -3 -150 -211 c-83 -116 -151 -214 -151 -216 0 -6 116
-88 124 -88 3 0 89 117 191 260 l186 260 159 0 c88 0 160 -2 160 -5 0 -3 -187
-498 -415 -1100 -228 -601 -415 -1098 -415 -1102 0 -5 32 -20 70 -33 51 -18
73 -21 78 -13 4 6 198 516 432 1132 l425 1121 241 0 242 0 -25 -92 c-86 -324
-589 -2284 -587 -2286 3 -5 148 -42 150 -39 3 2 624 2406 624 2413 0 2 92 4
205 4 l205 0 -5 -37 c-16 -100 -303 -2348 -301 -2350 4 -5 149 -23 153 -20 2
2 71 528 153 1168 82 640 153 1181 156 1202 l6 37 168 0 168 0 6 -37 c3 -21
74 -562 156 -1202 82 -640 151 -1166 153 -1168 4 -3 149 15 153 20 2 2 -285
2250 -301 2350 l-5 37 205 0 c113 0 205 -2 205 -4 0 -7 621 -2411 624 -2413 2
-3 147 34 150 39 2 2 -501 1962 -587 2286 l-25 92 242 0 241 0 425 -1121 c234
-616 428 -1126 432 -1132 5 -8 27 -5 78 13 38 13 70 28 70 33 0 4 -187 501
-415 1102 -228 602 -415 1097 -415 1100 0 3 72 5 160 5 l159 0 186 -261 c118
-165 192 -259 200 -255 19 7 115 77 115 83 0 3 -68 101 -151 217 l-150 211
120 3 121 3 0 79 0 80 -441 0 -442 0 27 33 c43 53 84 128 108 197 18 52 23 87
23 173 0 65 4 107 10 107 29 -1 289 -78 292 -87 2 -6 -9 -63 -25 -127 l-30
-116 42 -11 c22 -5 56 -14 75 -19 19 -5 36 -8 37 -7 1 1 12 40 24 87 12 47 25
101 31 121 l9 37 80 -22 c44 -11 80 -25 80 -31 0 -5 -13 -61 -29 -122 l-29
-113 42 -11 c22 -5 49 -12 59 -15 9 -2 25 -6 36 -9 16 -5 23 13 61 165 45 179
46 210 7 234 -12 7 -210 65 -440 127 l-418 113 -35 47 c-57 79 -155 144 -274
185 -106 37 -361 17 -352 -27 1 -8 12 -40 24 -72 l21 -58 41 8 c73 14 187 9
243 -12 110 -40 205 -138 242 -252 88 -267 -126 -541 -406 -520 -149 11 -271
96 -336 235 -29 61 -32 76 -32 162 0 86 3 102 31 160 17 36 46 83 63 103 l33
37 -30 37 c-17 21 -41 48 -55 61 l-25 23 -47 -58 c-66 -80 -113 -185 -127
-283 l-12 -80 -78 0 -78 0 0 88 c1 189 55 328 180 452 53 54 97 86 150 113
119 59 174 67 503 67 l287 0 0 80 0 80 -160 0 -160 0 0 335 0 336 -25 24 -24
25 -471 0 -471 0 -22 -22 c-17 -18 -39 -92 -96 -320 l-73 -298 -209 0 -209 0
0 40 0 40 55 0 c46 0 60 4 80 25 25 24 25 26 25 215 0 189 0 191 -25 215 -20
21 -34 25 -80 25 l-55 0 0 40 0 40 80 0 80 0 0 80 0 80 -135 0 c-131 0 -137
-1 -160 -25z m1575 -535 l0 -240 -342 0 -343 0 62 62 63 63 49 -49 50 -49 56
47 c30 26 55 53 55 59 0 15 -301 317 -315 317 -6 0 -28 -20 -48 -45 -21 -25
-42 -45 -46 -45 -5 0 -2 27 6 60 l15 60 369 0 369 0 0 -240z m-1440 80 l0 -80
-80 0 -80 0 0 80 0 80 80 0 80 0 0 -80z m720 -35 l45 -45 -82 -82 -81 -81 31
127 c17 69 34 126 37 126 3 0 26 -20 50 -45z m271 -487 c-82 -53 -166 -136
-220 -216 -86 -128 -120 -237 -128 -414 l-6 -128 -288 0 -288 0 -66 36 c-111
61 -233 57 -334 -12 -27 -18 -49 -24 -88 -24 l-53 0 0 53 0 54 186 73 c113 45
191 82 200 94 10 15 14 57 14 169 0 144 -1 149 -25 172 -23 24 -29 25 -160 25
-131 0 -135 1 -135 21 0 35 40 95 79 117 36 21 43 22 706 22 l670 0 -64 -42z
m-2503 -145 c64 -48 67 -57 70 -266 2 -106 1 -206 -3 -224 -6 -33 -49 -93 -66
-93 -5 0 -9 29 -9 65 l0 65 -80 0 -80 0 0 -72 0 -71 -26 24 c-48 44 -54 73
-54 278 0 110 4 202 11 218 14 37 47 72 84 89 40 19 119 12 153 -13z m456 13
c18 -8 46 -31 62 -52 l29 -37 3 -191 c2 -105 1 -205 -3 -223 -6 -33 -49 -93
-66 -93 -5 0 -9 29 -9 65 l0 65 -80 0 -80 0 0 -72 0 -71 -26 24 c-48 44 -54
73 -54 278 0 110 4 202 11 218 32 84 128 125 213 89z m816 -200 c0 -50 -2 -55
-27 -64 -16 -5 -52 -19 -80 -31 l-53 -21 0 85 0 85 80 0 80 0 0 -54z m-1073
-519 c27 -19 63 -40 81 -47 l32 -12 0 -124 0 -124 -160 0 -160 0 0 123 0 124
49 22 c27 13 61 34 77 47 16 13 30 23 31 24 2 0 24 -15 50 -33z m1216 -1 c103
-43 128 -177 48 -257 -64 -65 -153 -65 -220 -1 -128 121 9 326 172 258z m1099
-113 c16 -46 52 -107 98 -165 l22 -28 -501 0 c-276 0 -501 2 -501 5 0 4 8 20
17 38 12 22 17 57 17 114 l1 83 415 0 415 0 17 -47z"/>
<path d="M2160 3640 l0 -120 80 0 80 0 0 120 0 120 -80 0 -80 0 0 -120z"/>
<path d="M2480 3640 l0 -120 80 0 80 0 0 120 0 120 -80 0 -80 0 0 -120z"/>
<path d="M3520 3427 c-49 -16 -133 -102 -148 -153 -28 -94 -8 -169 63 -239
102 -103 243 -101 338 5 93 103 90 228 -8 325 -70 71 -152 91 -245 62z m135
-172 c16 -15 25 -36 25 -55 0 -19 -9 -40 -25 -55 -15 -16 -36 -25 -55 -25 -19
0 -40 9 -55 25 -16 15 -25 36 -25 55 0 19 9 40 25 55 15 16 36 25 55 25 19 0
40 -9 55 -25z"/>
<path d="M1280 2400 l0 -80 80 0 80 0 0 80 0 80 -80 0 -80 0 0 -80z"/>
<path d="M2480 2400 l0 -80 80 0 80 0 0 80 0 80 -80 0 -80 0 0 -80z"/>
<path d="M3680 2400 l0 -80 80 0 80 0 0 80 0 80 -80 0 -80 0 0 -80z"/>
<path d="M1120 2080 l0 -80 80 0 80 0 0 80 0 80 -80 0 -80 0 0 -80z"/>
<path d="M3840 2080 l0 -80 80 0 80 0 0 80 0 80 -80 0 -80 0 0 -80z"/>
<path d="M2397 2082 c-26 -26 -47 -52 -47 -58 0 -6 40 -49 89 -97 74 -73 94
-87 121 -87 27 0 47 14 121 87 49 48 89 92 89 98 0 13 -92 105 -105 105 -5 0
-31 -21 -57 -47 l-48 -47 -48 47 c-26 26 -52 47 -58 47 -5 0 -31 -22 -57 -48z"/>
<path d="M957 1762 c-26 -26 -47 -52 -47 -58 0 -6 40 -49 89 -97 74 -73 94
-87 121 -87 27 0 47 14 121 87 49 48 89 92 89 98 0 13 -92 105 -105 105 -5 0
-31 -21 -57 -47 l-48 -47 -48 47 c-26 26 -52 47 -58 47 -5 0 -31 -22 -57 -48z"/>
<path d="M3837 1762 c-26 -26 -47 -52 -47 -58 0 -6 40 -49 89 -97 74 -73 94
-87 121 -87 27 0 47 14 121 87 49 48 89 92 89 98 0 13 -92 105 -105 105 -5 0
-31 -21 -57 -47 l-48 -47 -48 47 c-26 26 -52 47 -58 47 -5 0 -31 -22 -57 -48z"/>
<path d="M2320 1603 l0 -80 31 -7 c48 -9 93 -62 118 -139 24 -71 48 -97 91
-97 44 0 68 26 92 101 25 78 66 125 119 136 l29 6 0 80 0 80 -42 -7 c-58 -9
-117 -37 -161 -76 l-37 -32 -37 32 c-44 39 -103 67 -161 76 l-42 7 0 -80z"/>
<path d="M720 1203 l0 -80 31 -7 c48 -9 93 -62 118 -139 24 -71 48 -97 91 -97
44 0 68 26 92 101 25 78 66 125 119 136 l29 6 0 80 0 80 -42 -7 c-58 -9 -117
-37 -161 -76 l-37 -32 -37 32 c-44 39 -103 67 -161 76 l-42 7 0 -80z"/>
<path d="M3920 1203 l0 -80 31 -7 c48 -9 93 -62 118 -139 24 -71 48 -97 91
-97 44 0 68 26 92 101 25 78 66 125 119 136 l29 6 0 80 0 80 -42 -7 c-58 -9
-117 -37 -161 -76 l-37 -32 -37 32 c-44 39 -103 67 -161 76 l-42 7 0 -80z"/>
<path d="M2320 1043 l0 -80 31 -7 c48 -9 93 -62 118 -139 24 -71 48 -97 91
-97 44 0 68 26 92 101 25 78 66 125 119 136 l29 6 0 80 0 80 -42 -7 c-58 -9
-117 -37 -161 -76 l-37 -32 -37 32 c-44 39 -103 67 -161 76 l-42 7 0 -80z"/>
<path d="M480 563 l0 -80 31 -7 c48 -9 93 -62 118 -139 24 -71 48 -97 91 -97
44 0 68 26 92 101 25 78 66 125 119 136 l29 6 0 80 0 80 -42 -7 c-58 -9 -117
-37 -161 -76 l-37 -32 -37 32 c-44 39 -103 67 -161 76 l-42 7 0 -80z"/>
<path d="M4160 563 l0 -80 31 -7 c48 -9 93 -62 118 -139 24 -71 48 -97 91 -97
44 0 68 26 92 101 25 78 66 125 119 136 l29 6 0 80 0 80 -42 -7 c-58 -9 -117
-37 -161 -76 l-37 -32 -37 32 c-44 39 -103 67 -161 76 l-42 7 0 -80z"/>
<path d="M2320 483 l0 -80 31 -7 c48 -9 93 -62 118 -139 24 -71 48 -97 91 -97
44 0 68 26 92 101 25 78 66 125 119 136 l29 6 0 80 0 80 -42 -7 c-58 -9 -117
-37 -161 -76 l-37 -32 -37 32 c-44 39 -103 67 -161 76 l-42 7 0 -80z"/>
</g>
</svg>
