<?xml version="1.0" standalone="no"?>
<!DOCTYPE svg PUBLIC "-//W3C//DTD SVG 20010904//EN"
 "http://www.w3.org/TR/2001/REC-SVG-20010904/DTD/svg10.dtd">
<svg version="1.0" xmlns="http://www.w3.org/2000/svg"
 width="512.000000pt" height="512.000000pt" viewBox="0 0 512.000000 512.000000"
 preserveAspectRatio="xMidYMid meet">

<g transform="translate(0.000000,512.000000) scale(0.100000,-0.100000)"
fill="#000000" stroke="none">
<path d="M722 5103 c-18 -9 -43 -30 -55 -47 -22 -30 -22 -38 -25 -396 -4 -488
12 -661 87 -896 l28 -89 -63 -120 c-74 -142 -133 -287 -169 -417 l-26 -94
-195 -22 c-111 -12 -207 -28 -223 -37 -16 -8 -40 -29 -53 -47 l-23 -33 0 -345
0 -345 23 -33 c13 -18 37 -39 53 -47 16 -9 112 -25 223 -37 l195 -22 22 -81
c35 -130 95 -281 168 -421 l69 -131 -115 -144 c-129 -162 -143 -185 -143 -230
0 -64 37 -111 252 -326 215 -214 253 -243 318 -243 44 0 68 15 229 143 l144
115 131 -69 c140 -73 291 -133 421 -168 l81 -22 22 -195 c12 -111 28 -207 37
-223 8 -16 29 -40 47 -53 l33 -23 345 0 345 0 33 23 c18 13 39 37 47 53 9 16
25 112 37 223 l22 195 81 22 c130 35 281 95 421 168 l131 69 144 -115 c161
-128 185 -143 229 -143 65 0 103 29 318 243 215 215 252 262 252 326 0 45 -14
68 -143 230 l-115 144 73 141 c67 128 123 271 172 431 l18 60 190 22 c104 12
202 28 218 34 15 7 40 28 55 47 l27 35 0 346 0 346 -23 33 c-13 18 -37 39 -53
47 -16 9 -112 25 -223 37 l-195 22 -26 94 c-36 130 -95 275 -169 417 l-63 120
29 89 c72 230 88 387 88 868 0 408 -1 416 -63 460 -40 29 -113 34 -264 19
-663 -67 -1252 -472 -1538 -1058 -28 -57 -52 -103 -55 -103 -3 0 -27 46 -55
103 -142 290 -370 550 -648 738 -256 172 -540 278 -847 314 -162 19 -246 19
-288 -2z m308 -298 c343 -41 744 -261 980 -538 248 -290 376 -611 399 -999 8
-127 16 -149 75 -192 38 -29 114 -29 152 0 59 43 67 65 75 192 23 388 151 709
399 999 236 277 637 497 980 538 30 3 63 9 73 11 16 5 17 -14 17 -310 0 -340
-8 -432 -55 -604 -74 -275 -212 -509 -426 -723 -221 -221 -485 -366 -783 -430
-108 -24 -152 -44 -180 -82 -20 -28 -21 -43 -26 -580 l-5 -552 -145 0 -145 0
-5 552 c-5 537 -6 552 -26 580 -27 37 -73 59 -164 78 -188 38 -403 129 -568
239 -310 206 -559 554 -657 918 -47 172 -55 263 -55 604 0 296 1 315 18 310 9
-2 42 -8 72 -11z m-41 -1571 c61 -91 249 -308 272 -316 10 -3 8 -28 -7 -109
-25 -136 -25 -367 -1 -491 52 -263 170 -489 355 -680 194 -200 433 -330 710
-385 119 -23 365 -23 484 0 544 108 957 522 1065 1065 24 124 24 355 -1 491
-15 81 -17 106 -7 109 24 8 214 229 279 325 l67 99 24 -54 c38 -86 87 -236
111 -341 25 -113 57 -160 118 -176 21 -5 110 -18 200 -27 l162 -18 0 -166 0
-166 -162 -18 c-90 -9 -179 -22 -200 -27 -65 -17 -90 -59 -127 -210 -51 -207
-119 -369 -237 -560 -91 -146 -88 -161 66 -356 61 -76 110 -143 110 -148 0
-19 -218 -228 -232 -222 -7 3 -73 52 -146 110 -189 151 -205 153 -351 63 -191
-118 -353 -186 -560 -237 -151 -37 -193 -62 -210 -127 -5 -21 -18 -110 -27
-200 l-18 -162 -166 0 -166 0 -18 162 c-9 90 -22 179 -27 200 -17 65 -59 90
-210 127 -207 51 -369 119 -560 237 -146 91 -161 88 -356 -66 -76 -61 -143
-110 -148 -110 -19 0 -228 218 -222 232 3 7 52 73 110 146 151 189 153 205 63
351 -118 191 -186 353 -237 560 -37 151 -62 193 -127 210 -21 5 -110 18 -199
27 l-163 18 0 166 0 166 163 18 c89 9 178 22 199 27 61 16 93 63 118 176 35
154 125 403 140 386 4 -4 35 -49 69 -99z m624 -570 c118 -69 291 -139 477
-193 l25 -8 3 -416 c1 -229 -1 -417 -6 -417 -4 0 -39 18 -77 41 -248 145 -426
395 -486 684 -26 124 -27 345 -2 345 3 0 32 -16 66 -36z m1975 -89 c2 -77 -3
-147 -13 -204 -55 -291 -238 -553 -490 -700 -38 -23 -73 -41 -77 -41 -5 0 -7
188 -6 417 l3 416 25 8 c187 54 363 126 475 193 33 19 65 34 70 32 6 -1 11
-53 13 -121z"/>
</g>
</svg>
