<?xml version="1.0" standalone="no"?>
<!DOCTYPE svg PUBLIC "-//W3C//DTD SVG 20010904//EN"
 "http://www.w3.org/TR/2001/REC-SVG-20010904/DTD/svg10.dtd">
<svg version="1.0" xmlns="http://www.w3.org/2000/svg"
 width="512.000000pt" height="512.000000pt" viewBox="0 0 512.000000 512.000000"
 preserveAspectRatio="xMidYMid meet">

<g transform="translate(0.000000,512.000000) scale(0.100000,-0.100000)"
fill="#000000" stroke="none">
<path d="M884 4791 c-47 -12 -133 -62 -160 -94 -14 -17 -37 -53 -52 -81 l-27
-51 0 -2005 0 -2005 27 -51 c40 -76 70 -107 140 -145 l63 -34 792 0 c784 0
792 0 819 21 44 32 66 68 71 116 7 58 -15 108 -63 144 l-37 29 -749 3 -748 2
0 1920 0 1920 879 0 880 0 3 -282 3 -283 34 -63 c38 -70 69 -100 145 -140 l51
-27 282 -3 283 -3 2 -588 3 -588 29 -37 c68 -90 190 -86 260 8 21 27 21 36 21
699 0 634 -1 675 -19 722 -16 43 -72 103 -415 448 -321 322 -406 403 -451 425
l-55 27 -990 2 c-545 0 -1004 -2 -1021 -6z m2286 -666 l125 -125 -128 0 -127
0 0 125 c0 69 1 125 3 125 1 0 58 -56 127 -125z"/>
<path d="M2175 3826 c-41 -18 -83 -69 -91 -110 -5 -31 -9 -35 -52 -41 -52 -8
-125 -42 -169 -79 -16 -14 -45 -53 -64 -88 l-34 -63 0 -165 0 -165 34 -63 c38
-70 69 -100 145 -140 50 -26 57 -27 254 -30 l202 -4 0 -78 0 -79 -269 -3
c-254 -3 -271 -4 -297 -24 -52 -39 -69 -71 -69 -133 0 -48 5 -64 29 -95 40
-53 78 -66 190 -66 l94 0 6 -35 c10 -49 71 -111 119 -120 86 -16 168 31 189
111 11 40 14 43 57 49 98 15 188 82 239 178 26 51 27 56 27 217 0 160 -1 167
-27 216 -40 76 -70 107 -140 145 l-63 34 -202 3 -203 4 0 78 0 79 269 3 c254
3 271 4 297 24 44 32 66 68 71 116 7 58 -15 108 -63 144 -35 27 -44 29 -143
32 l-106 4 -15 46 c-29 87 -134 136 -215 98z"/>
<path d="M3455 2066 c-66 -30 -95 -84 -95 -176 l0 -59 -63 30 c-108 50 -184
60 -423 57 -196 -3 -215 -5 -240 -24 -63 -47 -69 -64 -72 -212 -4 -169 12
-255 69 -372 82 -164 253 -296 435 -335 38 -8 120 -15 182 -15 l112 0 0 -159
0 -160 -189 -3 c-173 -3 -192 -5 -217 -24 -52 -39 -69 -71 -69 -133 0 -48 5
-64 29 -95 52 -68 38 -67 621 -64 511 3 524 3 551 24 44 32 66 68 71 116 7 58
-15 108 -63 144 l-37 29 -189 3 -188 3 0 160 0 159 113 0 c142 0 230 19 337
71 165 82 297 252 335 434 19 92 20 314 1 359 -8 18 -31 46 -52 62 l-37 29
-216 3 c-240 3 -310 -6 -419 -58 l-62 -29 0 60 c0 75 -18 119 -64 154 -44 33
-115 43 -161 21z m-267 -506 c93 -50 152 -132 167 -234 l8 -49 -124 5 c-118 4
-127 6 -187 38 -93 50 -152 132 -167 234 l-8 49 124 -5 c118 -4 127 -6 187
-38z m967 -7 c-15 -100 -82 -191 -178 -240 -46 -24 -66 -27 -176 -31 l-124 -5
8 49 c14 97 73 183 156 229 70 38 95 43 218 44 l103 1 -7 -47z"/>
<path d="M1375 1906 c-66 -29 -105 -106 -91 -179 9 -47 60 -104 104 -117 24
-8 158 -10 394 -8 342 3 358 4 384 24 44 32 66 68 71 116 7 58 -15 108 -63
144 l-37 29 -366 2 c-289 2 -372 0 -396 -11z"/>
<path d="M1375 1266 c-66 -29 -105 -106 -91 -179 9 -47 60 -104 104 -117 25
-8 182 -10 474 -8 423 3 437 4 464 24 44 32 66 68 71 116 7 58 -15 108 -63
144 l-37 29 -446 2 c-356 2 -452 0 -476 -11z"/>
</g>
</svg>
