<?xml version="1.0" standalone="no"?>
<!DOCTYPE svg PUBLIC "-//W3C//DTD SVG 20010904//EN"
 "http://www.w3.org/TR/2001/REC-SVG-20010904/DTD/svg10.dtd">
<svg version="1.0" xmlns="http://www.w3.org/2000/svg"
 width="512.000000pt" height="512.000000pt" viewBox="0 0 512.000000 512.000000"
 preserveAspectRatio="xMidYMid meet">

<g transform="translate(0.000000,512.000000) scale(0.100000,-0.100000)"
fill="#000000" stroke="none">
<path d="M80 5098 c-87 -45 -80 70 -80 -1331 0 -1221 0 -1238 20 -1277 13 -26
34 -47 60 -60 39 -20 53 -20 2480 -20 2427 0 2441 0 2480 20 26 13 47 34 60
60 20 39 20 56 20 1275 0 1219 0 1236 -20 1275 -35 69 -124 98 -193 64 -18 -9
-235 -218 -483 -466 l-451 -450 -452 226 c-248 124 -463 226 -476 226 -13 0
-36 -5 -52 -10 -15 -6 -234 -217 -485 -468 l-458 -457 -437 219 c-241 120
-451 223 -467 227 -75 22 -85 13 -478 -379 l-368 -367 0 800 c0 755 -1 802
-18 835 -20 38 -89 80 -132 80 -14 0 -46 -10 -70 -22z m4740 -1443 l0 -945
-330 0 -330 0 0 617 0 618 327 327 c181 181 329 328 330 328 2 0 3 -425 3
-945z m-1290 420 l330 -165 0 -600 0 -600 -335 0 -335 0 0 765 c0 421 2 765 5
765 3 0 154 -74 335 -165z m-640 -660 l0 -705 -330 0 -330 0 0 377 0 378 327
327 c181 181 329 328 330 328 2 0 3 -317 3 -705z m-1290 180 l330 -165 0 -360
0 -360 -335 0 -335 0 0 525 c0 289 2 525 5 525 3 0 154 -74 335 -165z m-640
-425 l0 -460 -330 0 -330 0 0 132 0 133 327 327 c181 181 329 328 330 328 2 0
3 -207 3 -460z"/>
<path d="M95 2056 c-42 -18 -83 -69 -91 -113 -9 -45 1 -176 21 -281 72 -380
321 -728 660 -922 131 -74 315 -138 478 -165 l37 -6 0 -134 0 -135 -543 0
c-505 0 -545 -1 -577 -18 -38 -20 -80 -89 -80 -132 0 -43 42 -112 80 -132 33
-17 133 -18 2480 -18 2347 0 2447 1 2480 18 38 20 80 89 80 132 0 43 -42 112
-80 132 -32 17 -72 18 -577 18 l-543 0 0 135 0 134 38 6 c304 50 555 178 768
392 230 229 369 539 391 869 7 108 -4 151 -52 193 -46 40 -84 46 -218 32 -459
-48 -824 -288 -1072 -706 -9 -15 -19 -4 -63 69 -245 400 -672 636 -1152 636
-480 0 -907 -236 -1152 -636 -44 -73 -54 -84 -63 -69 -148 250 -341 439 -565
554 -170 88 -310 131 -492 150 -124 14 -156 13 -193 -3z m335 -326 c111 -31
283 -119 376 -193 136 -109 257 -269 320 -426 31 -76 69 -219 61 -227 -11 -11
-109 13 -206 49 -129 48 -239 118 -346 219 -161 152 -262 327 -309 536 -14 61
-14 62 8 62 12 0 55 -9 96 -20z m1954 -42 c-75 -332 -317 -619 -628 -745 -90
-36 -222 -70 -232 -60 -9 9 29 151 60 228 94 234 280 431 511 544 108 54 225
93 277 94 l26 1 -14 -62z m456 42 c111 -31 283 -119 376 -193 136 -109 257
-269 320 -426 31 -76 69 -219 61 -227 -11 -11 -109 13 -206 49 -129 48 -239
118 -346 219 -161 152 -262 327 -309 536 -14 61 -14 62 8 62 12 0 55 -9 96
-20z m1954 -42 c-75 -332 -317 -619 -628 -745 -90 -36 -222 -70 -232 -60 -9 9
29 151 60 228 94 234 280 431 511 544 108 54 225 93 277 94 l26 1 -14 -62z
m-2224 -406 c0 -25 149 -229 222 -304 210 -216 475 -352 781 -403 l37 -6 0
-134 0 -135 -1050 0 -1050 0 0 135 c0 74 3 135 6 135 31 0 221 47 291 71 289
102 544 309 700 568 44 73 63 95 63 73z"/>
</g>
</svg>
